<svg id="Capa_1" enable-background="new 0 0 512 512" height="512" viewBox="0 0 512 512" width="512" xmlns="http://www.w3.org/2000/svg"><g><g><g><g><g><path d="m386.34 512h-260.68c-19.523 0-35.349-15.826-35.349-35.349v-354.161c0-5.687 4.61-10.298 10.298-10.298h310.784c5.687 0 10.298 4.61 10.298 10.298v354.161c-.001 19.523-15.828 35.349-35.351 35.349z" fill="#31a7fb"/><path d="m421.689 122.493v354.156c0 19.524-15.827 35.352-35.352 35.352h-35.908c19.514 0 35.341-15.827 35.341-35.352v-354.156c0-5.695-4.603-10.298-10.298-10.298h35.918c5.685 0 10.299 4.603 10.299 10.298z" fill="#1c96f9"/><path d="m421.687 122.491v57.178h-331.374v-57.178c0-5.693 4.608-10.291 10.301-10.291h310.772c5.693 0 10.301 4.597 10.301 10.291z" fill="#756f6f"/><path d="m226.214 130.254c0 15.639-12.686 28.325-28.335 28.325-15.639 0-28.325-12.686-28.325-28.325 0-6.86 2.436-13.153 6.505-18.054h43.649c4.06 4.902 6.506 11.194 6.506 18.054z" fill="#5b5555"/><g><path d="m133.636 145.928v33.736h-43.326z" fill="#5b5555"/></g><g><path d="m378.364 145.928v33.736h43.326z" fill="#5b5555"/></g><g><path d="m411.392 112.193-33.028 33.736 43.326 33.736v-57.175c0-5.687-4.611-10.297-10.298-10.297z" fill="#b9acac"/></g><g><path d="m100.608 112.193 33.028 33.736-43.326 33.735v-57.174c0-5.687 4.611-10.297 10.298-10.297z" fill="#b9acac"/></g></g></g></g><g><path d="m256 421.256c-45.784 0-83.032-37.248-83.032-83.032v-61.226c0-4.265 3.458-7.723 7.723-7.723s7.723 3.458 7.723 7.723v61.226c0 37.267 30.319 67.586 67.586 67.586s67.586-30.319 67.586-67.586v-61.604c0-4.265 3.458-7.723 7.723-7.723s7.723 3.458 7.723 7.723v61.604c0 45.784-37.248 83.032-83.032 83.032z" fill="#1c96f9"/></g><path d="m256 395.4c-45.722 0-82.92-37.198-82.92-82.92v-61.226c0-4.204 3.408-7.611 7.611-7.611 4.204 0 7.611 3.408 7.611 7.611v61.226c0 37.329 30.369 67.697 67.697 67.697s67.697-30.369 67.697-67.697v-61.605c0-4.204 3.408-7.611 7.611-7.611 4.204 0 7.612 3.408 7.612 7.611v61.605c.001 45.723-37.197 82.92-82.919 82.92z" fill="#f8f3f1"/><g><g><circle cx="331.309" cy="234.065" fill="#b9acac" r="17.19"/></g></g><g><g><circle cx="180.691" cy="234.065" fill="#b9acac" r="17.19"/></g></g></g><g><circle cx="197.881" cy="109.217" fill="#bcea73" r="28.328"/><path d="m226.207 109.214c0 15.651-12.686 28.337-28.324 28.337-5.243 0-10.162-1.424-14.369-3.922 11.12-2.563 19.405-12.518 19.405-24.415 0-11.884-8.272-21.852-19.392-24.415 4.207-2.486 9.113-3.909 14.356-3.909 15.637-.001 28.324 12.686 28.324 28.324z" fill="#99d53b"/></g><g><circle cx="322.46" cy="42.748" fill="#bcea73" r="22.355"/><path d="m344.813 42.746c0 12.351-10.011 22.362-22.352 22.362-4.137 0-8.019-1.124-11.339-3.095 8.775-2.023 15.313-9.878 15.313-19.267 0-9.378-6.528-17.244-15.303-19.267 3.32-1.962 7.192-3.085 11.329-3.085 12.341 0 22.352 10.011 22.352 22.352z" fill="#99d53b"/></g><g><path d="m314.728 179.665c.992-2.528 1.543-5.278 1.543-8.158 0-12.346-10.009-22.355-22.355-22.355s-22.355 10.008-22.355 22.355c0 2.88.551 5.63 1.543 8.158z" fill="#a8e7ef"/><path d="m297.891 171.504c0 2.911-.631 5.673-1.759 8.161h18.595c.992-2.529 1.543-5.28 1.543-8.161 0-12.341-10.011-22.352-22.352-22.352-4.137 0-8.009 1.124-11.329 3.085 8.774 2.023 15.302 9.889 15.302 19.267z" fill="#70d9e6"/></g><g><circle cx="133.62" cy="47.897" fill="#a8e7ef" r="22.355"/><path d="m155.973 47.895c0 12.351-10.011 22.362-22.352 22.362-4.137 0-8.019-1.124-11.339-3.095 8.775-2.023 15.313-9.878 15.313-19.267 0-9.378-6.528-17.244-15.303-19.267 3.32-1.962 7.192-3.085 11.329-3.085 12.341 0 22.352 10.011 22.352 22.352z" fill="#70d9e6"/></g><g fill="#bcea73"><path d="m245.053 2.23c-2.972-2.972-7.792-2.972-10.764 0l-4.118 4.118-4.118-4.118c-2.972-2.973-7.792-2.973-10.764 0-2.973 2.972-2.973 7.791 0 10.764l4.118 4.118-4.118 4.118c-2.973 2.973-2.973 7.792 0 10.764 1.486 1.486 3.434 2.229 5.382 2.229s3.896-.743 5.382-2.229l4.118-4.118 4.118 4.118c1.486 1.487 3.434 2.229 5.382 2.229 1.947 0 3.896-.743 5.382-2.229 2.973-2.972 2.973-7.791 0-10.764l-4.118-4.118 4.118-4.118c2.973-2.973 2.973-7.792 0-10.764z"/><path d="m410.791 71.621 4.118-4.118c2.973-2.973 2.973-7.792 0-10.764-2.972-2.972-7.792-2.972-10.764 0l-4.118 4.118-4.118-4.118c-2.972-2.973-7.791-2.973-10.764 0-2.973 2.972-2.973 7.791 0 10.764l4.118 4.118-4.118 4.118c-2.973 2.973-2.973 7.792 0 10.764 1.486 1.486 3.434 2.229 5.382 2.229s3.896-.743 5.382-2.229l4.118-4.118 4.118 4.118c1.486 1.487 3.434 2.229 5.382 2.229 1.947 0 3.896-.743 5.382-2.229 2.973-2.972 2.973-7.791 0-10.764z"/></g></g></svg>