<svg id="Capa_1" enable-background="new 0 0 502 502" height="512" viewBox="0 0 502 502" width="512" xmlns="http://www.w3.org/2000/svg" xmlns:xlink="http://www.w3.org/1999/xlink"><linearGradient id="SVGID_1_" gradientUnits="userSpaceOnUse" x1="251" x2="251" y1="212.996" y2="75.309"><stop offset="0" stop-color="#8b71c7"/><stop offset="1" stop-color="#a891d9"/></linearGradient><linearGradient id="SVGID_2_" gradientUnits="userSpaceOnUse" x1="251" x2="251" y1="305.512" y2="533.45"><stop offset="0" stop-color="#ec6476"/><stop offset="1" stop-color="#ec909c"/></linearGradient><linearGradient id="lg1"><stop offset="0" stop-color="#f4d84a"/><stop offset="1" stop-color="#f9ea9d"/></linearGradient><linearGradient id="SVGID_3_" gradientUnits="userSpaceOnUse" x1="251" x2="251" xlink:href="#lg1" y1="327.531" y2="202.323"/><linearGradient id="SVGID_4_" gradientUnits="userSpaceOnUse" x1="251" x2="251" xlink:href="#lg1" y1="98.849" y2="2.13"/><linearGradient id="SVGID_5_" gradientUnits="userSpaceOnUse" x1="251" x2="251" y1="317.688" y2="162.587"><stop offset="0" stop-color="#f4c128"/><stop offset="1" stop-color="#f9dd89"/></linearGradient><g><path d="m427.233 258.914h-68.908v-114.889c0-28.145-22.897-51.042-51.042-51.042h-112.566c-28.145 0-51.042 22.897-51.042 51.042v114.888h-68.908v-114.888c0-66.141 53.809-119.95 119.95-119.95h112.565c66.141 0 119.95 53.809 119.95 119.95v114.889z" fill="url(#SVGID_1_)"/><path d="m469.722 247.506h-437.444l40.225 187.556c7.576 35.322 38.794 60.555 74.919 60.555h207.156c36.125 0 67.344-25.233 74.919-60.555z" fill="url(#SVGID_2_)"/><path d="m251 299.272c-94.585 0-142.538-6.623-213.957-14.099-22.71-2.378-39.193-22.715-36.815-45.425 2.378-22.709 22.69-39.205 45.425-36.815 70.728 7.402 114.52 13.65 205.346 13.65 90.211 0 133.831-6.167 205.346-13.65 22.748-2.39 43.049 14.107 45.425 36.815 2.378 22.71-14.105 43.047-36.815 45.425-70.255 7.354-118.629 14.099-213.955 14.099z" fill="url(#SVGID_3_)"/><path d="m302.5 6.383h-103c-17.516 0-31.715 14.199-31.715 31.715v40.862c0 17.516 14.199 31.715 31.715 31.715h103c17.516 0 31.715-14.199 31.715-31.715v-40.862c0-17.515-14.2-31.715-31.715-31.715z" fill="url(#SVGID_4_)"/><g><ellipse cx="163.114" cy="419.512" fill="#efb1d2" rx="14.936" ry="12.003"/><ellipse cx="338.886" cy="419.512" fill="#efb1d2" rx="14.936" ry="12.003"/><circle cx="188.721" cy="389.894" fill="#fff" r="29.618"/><ellipse cx="200.687" cy="389.895" fill="#353544" rx="17.652" ry="17.652" transform="matrix(.707 -.707 .707 .707 -216.917 256.104)"/><circle cx="313.279" cy="389.894" fill="#fff" r="29.618"/><g fill="#353544"><path d="m342.834 389.894c0 9.749-7.903 17.652-17.652 17.652s-17.652-7.903-17.652-17.652 7.903-17.652 17.652-17.652 17.652 7.903 17.652 17.652z"/><ellipse cx="251" cy="412.347" rx="13.252" ry="17.352"/></g></g><path d="m256.126 304.001 22.258 6.4c11.603 3.336 23.251-5.126 23.664-17.193l.791-23.146c.119-3.483 1.217-6.862 3.168-9.75l12.965-19.19c6.759-10.005 2.31-23.697-9.039-27.818l-21.769-7.905c-3.276-1.19-6.15-3.278-8.294-6.026l-14.245-18.26c-7.426-9.52-21.824-9.52-29.25 0l-14.245 18.26c-2.143 2.748-5.018 4.836-8.294 6.026l-21.769 7.905c-11.349 4.121-15.798 17.814-9.039 27.818l12.965 19.19c1.951 2.888 3.049 6.267 3.168 9.75l.791 23.146c.412 12.067 12.06 20.529 23.664 17.193l22.257-6.4c3.35-.963 6.904-.963 10.253 0z" fill="url(#SVGID_5_)"/><path d="m385.438 293.432c-25.648 2.347-52.284 4.193-84.365 5.14-3.079 9.061-12.9 14.644-22.69 11.829l-22.258-6.4c-3.349-.963-6.903-.963-10.252 0l-22.257 6.4c-9.79 2.815-19.611-2.769-22.69-11.83-62.636-1.853-104.582-7.152-160.494-13.043l7.725 36.017c46.138 4.936 84.128 9.323 135.145 11.424 9.524 8.297 21.913 13.163 35.159 13.163 11.458 0 17.646-3.3 32.539-7.188 14.921 3.895 21.088 7.188 32.537 7.188h.005c13.242 0 25.63-4.865 35.152-13.16 25.854-1.06 48.238-2.695 69.921-4.682 9.751-.894 16.871-9.612 15.799-19.346-1.043-9.477-9.48-16.381-18.976-15.512z" fill="#d44c5f"/></g></svg>