<?xml version="1.0"?>
<svg xmlns="http://www.w3.org/2000/svg" xmlns:xlink="http://www.w3.org/1999/xlink" xmlns:svgjs="http://svgjs.com/svgjs" version="1.1" width="512" height="512" x="0" y="0" viewBox="0 0 512.002 512.002" style="enable-background:new 0 0 512 512" xml:space="preserve" class=""><g>
<path xmlns="http://www.w3.org/2000/svg" style="" d="M253.54,99.879h-46.109h-45.866c-13.732,0-119.321,0-133.267,0c-4.581,0-8.295,3.714-8.295,8.295  v379.719c0,1.374,1.123,2.534,2.58,2.624c18.02,1.122,18.879,13.96,38.542,13.96c20.558,0,20.558-14.038,41.118-14.038  c20.561,0,20.561,14.038,41.122,14.038c20.561,0,20.561-14.038,41.123-14.038c20.562,0,20.562,14.038,41.125,14.038  c20.561,0,20.561-14.038,41.124-14.038c18.678,0,22.394,11.579,37.961,13.703c-2.284-0.825-3.863-3.091-3.667-5.663l14.086-182.688  c0.427-5.596,5.092-9.919,10.703-9.919h23.175v-67.998v-38.682V99.879H253.54z" fill="#efefef" data-original="#efefef" class=""/>
<path xmlns="http://www.w3.org/2000/svg" style="" d="M47.002,108.582c0-4.807,3.896-8.703,8.703-8.703H28.298c-4.581,0-8.295,3.714-8.295,8.295v379.719  c0,1.374,1.123,2.534,2.58,2.624c12.336,0.768,16.632,7.024,24.419,10.897V108.582z" fill="#dddddd" data-original="#dddddd" class=""/>
<circle xmlns="http://www.w3.org/2000/svg" style="" cx="183.996" cy="99.877" r="22.999" fill="#fc5b6f" data-original="#fc5b6f" class=""/>
<path xmlns="http://www.w3.org/2000/svg" style="" d="M183.998,99.879c-4.256-7.371-3.962-16.116,0.002-22.996c-3.91-0.004-7.872,0.983-11.502,3.079  c-11.001,6.351-14.77,20.417-8.419,31.418c6.351,11.001,20.417,14.77,31.418,8.419c3.629-2.095,6.466-5.034,8.417-8.422  C195.974,111.368,188.254,107.25,183.998,99.879z" fill="#f74352" data-original="#f74352" class=""/>
<path xmlns="http://www.w3.org/2000/svg" style="" d="M444.868,103.374c0-8.338-9.83-15.053-11.826-22.523c-2.06-7.709,3.013-18.474-1.007-25.422  c-4.068-7.032-16.002-8.037-21.528-13.567c-5.549-5.547-6.507-17.444-13.566-21.528c-6.951-4.021-17.725,1.051-25.423-1.008  C364.048,17.329,357.322,7.5,348.993,7.5c-8.339,0-15.052,9.829-22.523,11.826c-7.703,2.06-18.468-3.015-25.423,1.008  c-7.033,4.069-8.037,16.002-13.566,21.527c-5.545,5.548-17.453,6.52-21.529,13.567c-4.021,6.949,1.05,17.723-1.008,25.422  c-1.992,7.454-11.826,14.206-11.826,22.524c0,8.339,9.829,15.052,11.826,22.524c2.055,7.689-3.006,18.486,1.007,25.422  c4.068,7.032,16.002,8.038,21.528,13.567c5.549,5.547,6.507,17.444,13.566,21.528c6.961,4.027,17.717-1.055,25.423,1.008  c7.448,1.99,14.208,11.826,22.524,11.826c8.339,0,15.052-9.829,22.524-11.826c7.706-2.063,18.471,3.016,25.423-1.008  c7.033-4.069,8.037-16.002,13.566-21.527c5.546-5.548,17.452-6.519,21.529-13.567c4.021-6.949-1.051-17.723,1.007-25.422  C435.039,118.427,444.868,111.703,444.868,103.374z" fill="#a2f948" data-original="#48aef9" class=""/>
<path xmlns="http://www.w3.org/2000/svg" style="" d="M403.942,176.982c-39.554,8.443-81.71-8.911-103.024-45.828  c-21.315-36.919-15.264-82.107,11.828-112.14c-3.877-0.407-7.72-0.553-10.864,0.891c-0.261,0.147-0.525,0.289-0.785,0.439  c-0.284,0.164-0.561,0.334-0.842,0.5c-6.364,4.509-7.425,15.669-12.774,21.015c-5.324,5.327-16.57,6.447-21.039,12.805  c-0.311,0.529-0.616,1.061-0.916,1.594c-3.201,6.962,1.392,17.209-0.581,24.589c-1.935,7.241-11.128,13.682-11.789,21.641  c-0.006,0.553-0.008,1.106-0.005,1.659c0.584,7.98,9.867,14.537,11.794,21.747c1.962,7.34-2.565,17.487,0.525,24.459  c0.179,0.318,0.352,0.638,0.535,0.954c0.176,0.305,0.359,0.602,0.538,0.904c4.554,6.264,15.634,7.364,20.938,12.671  c5.485,5.483,6.416,16.842,13.08,21.219c0.369,0.215,0.74,0.426,1.111,0.636c6.971,3.396,17.343-1.315,24.798,0.681  c7.448,1.99,14.21,11.826,22.524,11.826c8.339,0,15.052-9.828,22.524-11.826c7.693-2.06,18.477,3.012,25.423-1.008  C400.241,184.506,402.222,180.846,403.942,176.982z" fill="#39ee43" data-original="#3997ee" class=""/>
<path xmlns="http://www.w3.org/2000/svg" style="" d="M312.897,313.811l-14.115,185.06c-0.247,3.236,2.312,5.997,5.557,5.997h182.323  c3.252,0,5.816-2.767,5.568-6.009l-14.066-184.418c-0.455-5.962-5.425-10.568-11.405-10.568H323.621  C317.998,303.873,313.324,308.204,312.897,313.811z" fill="#fc5b6f" data-original="#fc5b6f" class=""/>
<path xmlns="http://www.w3.org/2000/svg" style="" d="M341.448,498.87l14.114-185.06c0.428-5.607,5.102-9.938,10.725-9.938H323.62  c-5.623,0-10.297,4.331-10.725,9.938l-14.115,185.06c-0.247,3.236,2.312,5.997,5.557,5.997h42.666  C343.76,504.867,341.201,502.106,341.448,498.87z" fill="#f74352" data-original="#f74352" class=""/>
<path xmlns="http://www.w3.org/2000/svg" style="" d="M338.809,135.566L338.809,135.566c-3.324,0-6.511-1.32-8.862-3.671l-17.318-17.318  c-4.894-4.894-4.894-12.829,0-17.722c4.894-4.893,12.83-4.893,17.722,0l8.457,8.457l24.442-24.443  c4.895-4.894,12.829-4.894,17.722,0s4.894,12.829,0,17.722l-33.304,33.304C345.32,134.245,342.133,135.566,338.809,135.566z" fill="#efefef" data-original="#efefef" class=""/>
<path xmlns="http://www.w3.org/2000/svg" style="" d="M380.975,80.868c-0.443-0.443-0.919-0.832-1.407-1.195c-0.014,2.814-1.092,5.624-3.239,7.771  l-29.407,29.408c-4.319,4.319-11.329,4.321-15.65,0L315.98,101.56c-1.466-1.466-2.422-3.244-2.894-5.118  c-0.152,0.138-0.31,0.266-0.457,0.413c-4.894,4.894-4.894,12.829,0,17.722l17.318,17.318c4.891,4.891,12.83,4.893,17.722,0  l33.304-33.304C385.867,93.696,385.867,85.762,380.975,80.868z" fill="#dddddd" data-original="#dddddd" class=""/>
<path xmlns="http://www.w3.org/2000/svg" d="M99.824,210.081h157.925c4.142,0,7.5-3.357,7.5-7.5s-3.358-7.5-7.5-7.5H99.824c-4.143,0-7.5,3.357-7.5,7.5  C92.324,206.724,95.681,210.081,99.824,210.081z" fill="#000000" data-original="#000000" style="" class=""/>
<path xmlns="http://www.w3.org/2000/svg" d="M99.824,244.964h176.472c4.143,0,7.5-3.357,7.5-7.5s-3.357-7.5-7.5-7.5H99.824c-4.143,0-7.5,3.357-7.5,7.5  C92.324,241.606,95.681,244.964,99.824,244.964z" fill="#000000" data-original="#000000" style="" class=""/>
<path xmlns="http://www.w3.org/2000/svg" d="M99.824,279.847h176.472c4.143,0,7.5-3.357,7.5-7.5s-3.357-7.5-7.5-7.5H99.824c-4.143,0-7.5,3.357-7.5,7.5  C92.324,276.49,95.681,279.847,99.824,279.847z" fill="#000000" data-original="#000000" style="" class=""/>
<path xmlns="http://www.w3.org/2000/svg" d="M99.824,314.731h176.472c4.143,0,7.5-3.357,7.5-7.5s-3.357-7.5-7.5-7.5H99.824c-4.143,0-7.5,3.357-7.5,7.5  S95.681,314.731,99.824,314.731z" fill="#000000" data-original="#000000" style="" class=""/>
<path xmlns="http://www.w3.org/2000/svg" d="M99.824,349.615h176.472c4.143,0,7.5-3.358,7.5-7.5c0-4.143-3.357-7.5-7.5-7.5H99.824c-4.143,0-7.5,3.357-7.5,7.5  C92.324,346.257,95.681,349.615,99.824,349.615z" fill="#000000" data-original="#000000" style="" class=""/>
<path xmlns="http://www.w3.org/2000/svg" d="M99.824,384.499h176.472c4.143,0,7.5-3.357,7.5-7.5s-3.357-7.5-7.5-7.5H99.824c-4.143,0-7.5,3.357-7.5,7.5  C92.324,381.141,95.681,384.499,99.824,384.499z" fill="#000000" data-original="#000000" style="" class=""/>
<path xmlns="http://www.w3.org/2000/svg" d="M99.824,419.383h176.472c4.143,0,7.5-3.357,7.5-7.5s-3.357-7.5-7.5-7.5H99.824c-4.143,0-7.5,3.357-7.5,7.5  S95.681,419.383,99.824,419.383z" fill="#000000" data-original="#000000" style="" class=""/>
<path xmlns="http://www.w3.org/2000/svg" d="M71.631,210.081h0.573c4.143,0,7.5-3.357,7.5-7.5s-3.357-7.5-7.5-7.5h-0.573c-4.143,0-7.5,3.357-7.5,7.5  C64.131,206.724,67.488,210.081,71.631,210.081z" fill="#000000" data-original="#000000" style="" class=""/>
<path xmlns="http://www.w3.org/2000/svg" d="M71.631,244.964h0.573c4.143,0,7.5-3.357,7.5-7.5s-3.357-7.5-7.5-7.5h-0.573c-4.143,0-7.5,3.357-7.5,7.5  C64.131,241.606,67.488,244.964,71.631,244.964z" fill="#000000" data-original="#000000" style="" class=""/>
<path xmlns="http://www.w3.org/2000/svg" d="M71.631,279.847h0.573c4.143,0,7.5-3.357,7.5-7.5s-3.357-7.5-7.5-7.5h-0.573c-4.143,0-7.5,3.357-7.5,7.5  C64.131,276.49,67.488,279.847,71.631,279.847z" fill="#000000" data-original="#000000" style="" class=""/>
<path xmlns="http://www.w3.org/2000/svg" d="M71.631,314.731h0.573c4.143,0,7.5-3.357,7.5-7.5s-3.357-7.5-7.5-7.5h-0.573c-4.143,0-7.5,3.357-7.5,7.5  S67.488,314.731,71.631,314.731z" fill="#000000" data-original="#000000" style="" class=""/>
<path xmlns="http://www.w3.org/2000/svg" d="M71.631,349.615h0.573c4.143,0,7.5-3.358,7.5-7.5c0-4.143-3.357-7.5-7.5-7.5h-0.573c-4.143,0-7.5,3.357-7.5,7.5  C64.131,346.257,67.488,349.615,71.631,349.615z" fill="#000000" data-original="#000000" style="" class=""/>
<path xmlns="http://www.w3.org/2000/svg" d="M71.631,384.499h0.573c4.143,0,7.5-3.357,7.5-7.5s-3.357-7.5-7.5-7.5h-0.573c-4.143,0-7.5,3.357-7.5,7.5  C64.131,381.141,67.488,384.499,71.631,384.499z" fill="#000000" data-original="#000000" style="" class=""/>
<path xmlns="http://www.w3.org/2000/svg" d="M71.631,419.383h0.573c4.143,0,7.5-3.357,7.5-7.5s-3.357-7.5-7.5-7.5h-0.573c-4.143,0-7.5,3.357-7.5,7.5  S67.488,419.383,71.631,419.383z" fill="#000000" data-original="#000000" style="" class=""/>
<path xmlns="http://www.w3.org/2000/svg" d="M357.942,75.566l-19.138,19.139l-3.153-3.154c-7.812-7.81-20.517-7.811-28.33,0c-7.81,7.809-7.81,20.517,0,28.328  l17.319,17.32c7.827,7.824,20.495,7.829,28.328-0.002l33.304-33.305c7.81-7.811,7.81-20.519,0-28.328  C378.443,67.737,365.773,67.735,357.942,75.566z M375.666,93.287l-33.302,33.304c-1.947,1.947-5.135,1.985-7.118,0.002  l-17.318-17.318c-1.962-1.963-1.962-5.155-0.001-7.116c1.961-1.961,5.155-1.964,7.117,0l8.457,8.457  c2.928,2.926,7.677,2.929,10.607-0.001l24.441-24.441c1.959-1.963,5.153-1.964,7.116,0  C377.627,88.133,377.627,91.325,375.666,93.287z" fill="#000000" data-original="#000000" style="" class=""/>
<path xmlns="http://www.w3.org/2000/svg" d="M376.758,341.035h38.222c4.143,0,7.5-3.357,7.5-7.5c0-4.143-3.357-7.5-7.5-7.5h-38.222c-4.143,0-7.5,3.357-7.5,7.5  S372.616,341.035,376.758,341.035z" fill="#000000" data-original="#000000" style="" class=""/>
<path xmlns="http://www.w3.org/2000/svg" d="M499.505,497.931l-14.037-184.041c-0.746-9.801-9.031-17.477-18.859-17.477H450.1v-8.893  c0-29.903-24.328-54.231-54.231-54.231c-15.526,0-29.538,6.568-39.434,17.059V205.12c7.011-2.94,12.938-9.449,16.818-10.486  c5.861-1.568,17.663,3.817,27.251-1.73c9.662-5.59,10.934-18.583,15.09-22.739c4.162-4.165,17.144-5.418,22.741-15.091  c5.544-9.584,0.165-21.408,1.729-27.25c1.449-5.428,12.112-13.233,12.112-24.452c0-11.211-10.672-19.058-12.112-24.451  c-1.942-7.271,6.8-23.755-8.039-33.78c-3.434-2.319-8.095-1.415-10.413,2.019c-2.317,3.433-1.414,8.095,2.019,10.413  c2.446,1.652,2.747,2.646,1.772,10.876c-0.528,4.451-1.127,9.496,0.169,14.346c1.255,4.692,4.241,8.666,6.876,12.172  c2.217,2.948,4.728,6.291,4.728,8.408c0,4.483-9.224,11.681-11.604,20.579c-2.366,8.858,1.8,20.12-0.221,23.611  c-2.125,3.675-13.804,5.436-20.364,11.995c-6.491,6.493-8.365,18.262-11.994,20.364c-3.456,1.998-14.737-2.144-23.611,0.22  c-8.736,2.336-16.184,11.605-20.579,11.605c-4.086,0-12.544-9.455-20.579-11.605c-9.005-2.407-20.069,1.826-23.612-0.222  c-3.675-2.126-5.435-13.803-11.994-20.363c-6.491-6.49-18.263-8.366-20.364-11.994c-2.013-3.48,2.143-14.77-0.22-23.611  c-2.437-9.111-12.32-16.698-11.553-21.106c0.003-0.02,0.008-0.04,0.011-0.059c0.922-4.862,9.251-11.424,11.542-19.992  c2.366-8.857-1.8-20.12,0.221-23.611c2.125-3.676,13.804-5.436,20.364-11.995c6.491-6.493,8.366-18.263,11.994-20.364  c3.486-2.017,14.732,2.15,23.611-0.22C336.958,24.267,344.406,15,348.801,15c4.483,0,11.678,9.224,20.579,11.604  c8.854,2.365,20.122-1.799,23.611,0.221c0.831,0.48,1.773,1.751,2.798,3.774c1.871,3.695,6.382,5.174,10.08,3.301  c3.694-1.872,5.173-6.385,3.301-10.08c-10.183-20.098-27.764-9.519-35.917-11.708C367.831,10.664,360.02,0,348.801,0  c-11.211,0-19.058,10.671-24.451,12.112c-5.86,1.56-17.675-3.814-27.251,1.729c-9.571,5.538-11.034,18.684-15.09,22.739  c-4.155,4.157-17.15,5.427-22.741,15.091c-5.544,9.584-0.166,21.409-1.729,27.25c-0.866,3.244-5.715,8.128-8.833,13.518h-34.765  c-3.349-13.165-15.302-22.932-29.495-22.932c-14.193,0-26.145,9.768-29.494,22.932H28.255c-8.71,0-15.796,7.086-15.796,15.795  v286.15c0,4.143,3.357,7.5,7.5,7.5s7.5-3.357,7.5-7.5v-286.15c0-0.438,0.357-0.795,0.796-0.795H154.95  c3.352,13.158,15.313,22.923,29.492,22.932h0.005l0,0h0.001c14.365,0,26.407-10.12,29.496-22.932h31.947  c2.038,8.915,10.43,15.826,11.648,20.388c1.539,5.757-3.79,17.712,1.73,27.25c5.591,9.664,18.582,10.933,22.739,15.09  c4.161,4.158,5.422,17.146,15.091,22.741c9.567,5.535,21.47,0.176,27.25,1.729c3.864,1.032,10.095,7.753,17.063,10.59  c0.008,0.003,0.016,0.007,0.016,0.007l0.008,91.181h-17.673c-9.477,0-17.462,7.401-18.181,16.848l-13.605,178.367  c-0.166-0.113-0.334-0.227-0.503-0.342c-5.434-3.708-12.196-8.322-24.793-8.322c-22.915,0-24.104,14.036-41.122,14.036  c-16.947,0-18.222-14.036-41.123-14.036c-22.914,0-24.104,14.036-41.121,14.036c-16.943,0-18.224-14.036-41.121-14.036  C79.28,482.965,78.094,497,61.078,497c-15.105,0-17.082-10.585-33.62-13.43v-54.187c0-4.143-3.357-7.5-7.5-7.5s-7.5,3.357-7.5,7.5  v58.534c0,5.337,4.225,9.778,9.614,10.11C36.687,498.937,39.207,512,61.078,512c22.914,0,24.099-14.036,41.116-14.036  c16.945,0,18.222,14.036,41.121,14.036c22.915,0,24.103-14.036,41.121-14.036c16.945,0,18.224,14.036,41.123,14.036  c22.915,0,24.104-14.036,41.122-14.036c15.532,0,16.975,10.885,34.334,13.536c1.137,0.319,2.317,0.501,3.516,0.501h30.18  c4.143,0,7.5-3.357,7.5-7.5s-3.357-7.5-7.5-7.5h-28.1l13.928-182.599c0.127-1.675,1.544-2.987,3.225-2.987h17.874v13.641  c0,4.143,3.357,7.5,7.5,7.5s7.5-3.357,7.5-7.5v-13.641h78.465v13.641c0,4.143,3.357,7.5,7.5,7.5s7.5-3.357,7.5-7.5v-13.641h16.509  c2.034,0,3.749,1.589,3.903,3.617l13.879,181.97H369.709c-4.143,0-7.5,3.357-7.5,7.5s3.357,7.5,7.5,7.5H486.47  C494.075,512,500.084,505.512,499.505,497.931z M199.88,99.938c0,8.614-7.089,15.433-15.432,15.433  c-8.518,0-15.433-6.931-15.433-15.433c0-8.51,6.923-15.433,15.433-15.433c8.507,0,15.428,6.918,15.433,15.423L199.88,99.938z   M435.101,296.414h-78.465v-8.893c0-21.633,17.599-39.232,39.232-39.232c21.633,0,39.232,17.599,39.232,39.232v8.893H435.101z" fill="#000000" data-original="#000000" style="" class=""/>
<g xmlns="http://www.w3.org/2000/svg">
</g>
<g xmlns="http://www.w3.org/2000/svg">
</g>
<g xmlns="http://www.w3.org/2000/svg">
</g>
<g xmlns="http://www.w3.org/2000/svg">
</g>
<g xmlns="http://www.w3.org/2000/svg">
</g>
<g xmlns="http://www.w3.org/2000/svg">
</g>
<g xmlns="http://www.w3.org/2000/svg">
</g>
<g xmlns="http://www.w3.org/2000/svg">
</g>
<g xmlns="http://www.w3.org/2000/svg">
</g>
<g xmlns="http://www.w3.org/2000/svg">
</g>
<g xmlns="http://www.w3.org/2000/svg">
</g>
<g xmlns="http://www.w3.org/2000/svg">
</g>
<g xmlns="http://www.w3.org/2000/svg">
</g>
<g xmlns="http://www.w3.org/2000/svg">
</g>
<g xmlns="http://www.w3.org/2000/svg">
</g>
</g></svg>
